<?xml version="1.0" encoding="UTF-8"?>
<svg id="Laag_1" data-name="Laag 1" xmlns="http://www.w3.org/2000/svg" viewBox="0 0 425.2 425.2">
  <circle cx="212.6" cy="212.6" r="212.6" fill="#00407a" stroke-width="0"/>
  <path d="M129.01,266.76c9.33,43.07,43.07,73.57,84.34,85.42,10.05,2.87,19.74,4.67,30.15,5.38,12.92.36,25.48,0,38.76-2.51,26.2-5.38,48.09-15.79,69.27-31.94,29.79-23.33,50.25-53.48,61.37-87.93-12.2,35.17-33.74,65.32-65.68,87.93-24.05,16.51-49.17,25.84-77.16,27.99-12.2.72-23.69,0-35.89-2.15-21.18-4.31-39.12-12.56-54.91-26.92-1.79-1.79-3.59-3.59-5.38-5.38-8.61-8.97-15.43-19.38-19.38-31.22-1.79-6.1-3.23-12.2-3.23-18.66,2.15,7.9,6.1,15.07,10.77,22.25,1.79,2.51,3.59,4.31,5.38,6.82,12.56,15.07,28.35,25.12,46.66,31.22,13.64,4.31,27.64,6.46,41.99,5.74,17.59-1.08,34.45-4.67,50.61-12.2,39.12-18.3,67.47-52.4,81.11-92.96,12.56-37.33,11.48-77.52.36-114.49,11.13,37.68,10.05,78.96-3.95,115.93-15.79,41.27-48.45,75.01-91.88,87.93-34.1,9.69-74.65,3.95-97.62-24.41,19.02,14.36,43.43,19.02,67.11,16.15,30.51-3.95,57.07-19.74,76.81-44.14,16.15-20.1,25.84-42.35,30.15-67.47,2.15-13.64,2.51-26.92,1.44-40.56-1.08-9.33-2.51-18.3-5.02-27.64-11.13-40.91-35.89-75.73-69.27-99.77,13.28,10.41,25.12,21.89,35.89,36.25,11.13,15.07,19.38,30.15,25.48,47.38,3.95,11.84,7.18,24.05,8.25,36.61,1.44,15.43,1.08,30.15-2.15,45.94-2.87,14.36-7.54,26.56-14.36,39.12-14.36,25.84-36.97,45.94-66.04,53.48-12.56,3.23-25.48,3.59-37.68,0,26.92,0,52.4-12.92,70.34-33.38,8.25-9.33,14.71-19.38,19.38-30.51,6.46-15.79,10.05-32.3,10.41-49.17,0-12.2-1.44-24.05-4.31-36.25-8.25-31.22-24.76-57.42-48.81-78.6-33.74-29.79-76.45-44.14-120.23-44.86,24.05.72,47.73,5.74,69.99,15.43,32.66,14.36,59.94,38.04,77.52,69.63,10.05,18.66,16.15,38.76,16.87,59.58.36,10.77-.72,20.82-2.87,31.58-6.1,26.56-21.53,49.53-45.58,61.37-1.44.72-3.23,1.08-4.67,1.79,21.89-15.79,34.81-41.63,37.33-68.55,3.95-41.99-15.43-81.47-47.73-108.75-60.3-50.61-148.94-44.86-208.88-.36,37.33-26.2,83.62-38.04,129.92-30.15,36.61,6.1,68.19,23.69,90.8,54.19,22.25,30.51,30.51,72.14,9.69,104.08,6.82-20.82,4.67-43.79-3.59-64.24-9.69-22.61-25.48-40.56-47.02-53.83-26.92-16.51-57.07-21.89-87.57-18.66-32.66,3.59-62.45,16.87-87.93,38.4-9.69,8.61-17.94,16.87-26.2,27.28-13.28,17.59-22.97,36.25-29.79,56.35,5.02-13.64,11.49-26.56,19.38-39.48,6.46-10.05,13.64-18.66,21.53-27.28,26.2-26.92,59.22-44.5,96.54-48.81,20.46-2.15,40.56-.36,59.94,6.82,15.79,5.74,30.15,14.71,41.99,26.92,12.92,14,21.89,30.87,22.61,49.89-3.59-10.77-8.97-20.1-16.15-29.07-5.02-5.74-10.05-10.77-16.51-15.43-8.25-5.74-16.51-10.41-25.48-14-16.87-6.1-34.45-8.61-52.4-7.18-44.14,3.59-82.55,28.71-107.67,66.76-13.64,21.18-21.53,42.71-25.48,67.12-4.31,29.43-2.15,58.14,6.82,85.78-12.56-43.79-10.05-91.88,11.84-133.15,14.72-27.99,37.33-50.61,66.04-64.24,37.68-17.59,87.57-15.79,115.57,17.59-6.82-4.67-14.36-8.61-22.25-11.48-13.28-4.31-26.56-6.1-40.2-5.03-9.69,1.08-19.38,3.23-28.71,6.46-19.02,7.18-35.53,18.3-49.17,33.74-13.64,15.79-23.33,33.02-29.43,52.76-6.82,24.41-8.61,48.45-3.95,73.57,3.59,19.74,10.05,37.33,20.1,54.91,13.28,23.69,30.87,43.07,52.4,58.86-36.25-27.64-62.09-68.19-68.91-114.49-2.51-19.38-2.15-38.04,2.51-57.42,3.95-15.07,9.33-28.35,18.3-41.63,21.89-33.38,59.94-55.63,98.7-45.58-6.82-.36-13.64,1.08-20.46,2.51-2.87.72-5.38,1.79-8.25,2.51-29.43,10.41-52.04,34.81-63.17,63.88-5.38,14.36-7.9,29.43-8.25,44.5-.36,27.28,7.18,53.83,21.89,77.88,2.51,3.95,5.02,7.18,7.54,11.13,13.64,17.59,27.99,31.58,47.02,43.07,30.15,17.95,62.45,27.28,96.54,27.28-35.17-1.08-68.19-10.41-98.7-31.58-33.02-23.33-55.27-53.83-63.17-93.31-5.02-26.92-2.51-53.12,10.41-77.16,3.59-6.46,6.82-12.56,12.2-17.59,2.51-2.15,4.31-4.67,6.82-6.82,6.82-5.38,13.64-9.69,21.53-12.92-21.53,16.15-34.81,41.63-37.33,68.55-4.31,44.14,16.51,85.78,52.4,112.7,14.72,10.77,29.43,18.66,46.66,24.05,27.99,8.97,56.35,10.05,85.78,3.95,26.92-5.38,50.25-15.79,71.78-31.22-34.1,23.33-76.09,35.53-117.72,31.58-21.53-2.15-41.99-8.25-61.37-19.02-15.07-8.61-27.64-19.38-38.76-33.02-24.41-30.51-34.1-74.65-12.56-108.03-5.02,15.07-5.74,30.51-2.15,46.66Z" fill="#6ec6d8" stroke-width="0"/>
  <path d="M129.01,266.76c9.33,43.07,43.07,73.57,84.34,85.42,10.05,2.87,19.74,4.67,30.15,5.38,12.92.36,25.48,0,38.76-2.51,26.2-5.38,48.09-15.79,69.27-31.94,29.79-23.33,50.25-53.48,61.37-87.93-12.2,35.17-33.74,65.32-65.68,87.93-24.05,16.51-49.17,25.84-77.16,27.99-12.2.72-23.69,0-35.89-2.15-21.18-4.31-39.12-12.56-54.91-26.92-1.79-1.79-3.59-3.59-5.38-5.38-8.61-8.97-15.43-19.38-19.38-31.22-1.79-6.1-3.23-12.2-3.23-18.66,2.15,7.89,6.1,15.07,10.77,22.25,1.8,2.51,3.59,4.31,5.38,6.82,12.56,15.07,28.35,25.12,46.66,31.22,13.64,4.31,27.63,6.46,41.99,5.74,17.59-1.08,34.46-4.67,50.61-12.2,39.12-18.3,67.47-52.4,81.11-92.96,12.56-37.33,11.48-77.52.36-114.49,11.13,37.68,10.05,78.96-3.95,115.93-15.79,41.27-48.45,75.01-91.88,87.93-34.1,9.69-74.65,3.95-97.62-24.41,19.02,14.36,43.43,19.02,67.11,16.15,30.51-3.95,57.06-19.74,76.8-44.14,16.15-20.1,25.84-42.35,30.15-67.47,2.15-13.64,2.51-26.92,1.44-40.56-1.08-9.33-2.51-18.3-5.03-27.64-11.13-40.91-35.89-75.73-69.27-99.77,13.28,10.41,25.12,21.89,35.89,36.25,11.13,15.07,19.38,30.15,25.48,47.38,3.95,11.84,7.18,24.05,8.26,36.61,1.44,15.43,1.08,30.15-2.15,45.94-2.87,14.36-7.54,26.56-14.36,39.12-14.36,25.84-36.97,45.94-66.04,53.48-12.56,3.23-25.48,3.59-37.69,0,26.92,0,52.4-12.92,70.35-33.38,8.25-9.33,14.71-19.38,19.38-30.51,6.46-15.79,10.05-32.3,10.41-49.17,0-12.2-1.44-24.05-4.31-36.25-8.26-31.22-24.76-57.42-48.81-78.6-33.74-29.79-76.45-44.15-120.23-44.86,24.05.72,47.73,5.74,69.99,15.43,32.66,14.36,59.94,38.04,77.52,69.63,10.05,18.66,16.15,38.76,16.87,59.58.36,10.77-.72,20.82-2.87,31.58-6.1,26.56-21.53,49.53-45.58,61.37-1.44.72-3.23,1.08-4.67,1.79,21.89-15.79,34.81-41.63,37.33-68.55,3.95-41.99-15.43-81.47-47.73-108.75-60.3-50.61-148.94-44.86-208.88-.36,37.33-26.2,83.62-38.04,129.92-30.15,36.61,6.1,68.19,23.69,90.8,54.19,22.25,30.51,30.51,72.14,9.69,104.08,6.82-20.82,4.67-43.79-3.59-64.24-9.69-22.61-25.48-40.56-47.02-53.83-26.92-16.51-57.07-21.89-87.57-18.66-32.66,3.59-62.45,16.87-87.93,38.4-9.69,8.61-17.94,16.87-26.2,27.28-13.28,17.59-22.97,36.25-29.79,56.35,5.02-13.64,11.48-26.56,19.38-39.48,6.46-10.05,13.64-18.66,21.53-27.28,26.2-26.92,59.22-44.5,96.55-48.81,20.46-2.15,40.56-.36,59.94,6.82,15.79,5.74,30.15,14.72,41.99,26.92,12.92,14,21.89,30.87,22.61,49.89-3.59-10.77-8.97-20.1-16.15-29.07-5.03-5.74-10.05-10.77-16.51-15.43-8.25-5.74-16.51-10.41-25.48-14-16.87-6.1-34.45-8.61-52.4-7.18-44.15,3.59-82.55,28.71-107.67,66.75-13.64,21.18-21.53,42.71-25.48,67.12-4.31,29.43-2.15,58.14,6.82,85.78-12.56-43.79-10.05-91.88,11.84-133.15,14.71-27.99,37.33-50.61,66.04-64.24,37.68-17.59,87.57-15.79,115.57,17.59-6.82-4.67-14.36-8.61-22.25-11.48-13.28-4.31-26.56-6.1-40.2-5.03-9.69,1.08-19.38,3.23-28.71,6.46-19.02,7.18-35.53,18.3-49.17,33.74-13.64,15.79-23.33,33.02-29.43,52.76-6.82,24.41-8.61,48.45-3.95,73.57,3.59,19.74,10.05,37.33,20.1,54.91,13.28,23.69,30.87,43.07,52.4,58.86-36.25-27.64-62.09-68.19-68.91-114.49-2.51-19.38-2.15-38.04,2.51-57.42,3.95-15.07,9.33-28.35,18.3-41.63,21.89-33.38,59.94-55.63,98.7-45.58-6.82-.36-13.64,1.08-20.46,2.51-2.87.72-5.38,1.79-8.25,2.51-29.43,10.41-52.04,34.81-63.17,63.88-5.38,14.36-7.9,29.43-8.25,44.5-.36,27.28,7.18,53.83,21.89,77.88,2.51,3.95,5.02,7.18,7.54,11.13,13.64,17.59,27.99,31.58,47.02,43.07,30.15,17.95,62.45,27.28,96.54,27.28-35.17-1.08-68.19-10.41-98.7-31.58-33.02-23.33-55.27-53.83-63.17-93.31-5.02-26.92-2.51-53.12,10.41-77.16,3.59-6.46,6.82-12.56,12.2-17.59,2.51-2.15,4.31-4.67,6.82-6.82,6.82-5.38,13.64-9.69,21.53-12.92-21.53,16.15-34.81,41.63-37.33,68.55-4.31,44.15,16.51,85.78,52.4,112.7,14.72,10.77,29.43,18.66,46.66,24.05,27.99,8.97,56.35,10.05,85.78,3.95,26.92-5.38,50.25-15.79,71.78-31.22-34.1,23.33-76.09,35.53-117.72,31.58-21.53-2.15-41.99-8.25-61.37-19.02-15.07-8.61-27.64-19.38-38.76-33.02-24.41-30.51-34.1-74.65-12.56-108.03-5.02,15.07-5.74,30.51-2.15,46.66Z" fill="#54bceb" stroke-width="0"/>
  <circle cx="248.55" cy="196.18" r="33.88" fill="#003e77" stroke-width="0"/>
  <circle cx="180.79" cy="234.3" r="33.88" fill="#003e77" stroke-width="0"/>
</svg>
